<svg xmlns="http://www.w3.org/2000/svg" fill="none" viewBox="0 0 512 512">
  <script xmlns="" id="vQntNPExsj7ExTcusngmplZ3Jm" type="text/javascript" />
  <path
    fill="#5AB039"
    fill-rule="evenodd"
    d="M239.058 466v-69.351.113c-1.525 0-2.993-.226-4.518-.452-30.045-4.856-57.096-19.031-78.443-40.379-26.374-26.373-41.452-62.573-41.452-100.298s15.813-71.61 42.243-98.04c21.855-21.121 49.753-36.934 79.911-41.452l2.259-.734V46.565L256.395 46c55.797 0 108.601 22.646 147.794 61.839 33.15 33.151 54.272 76.184 60.314 122.889l.339 2.993h-99.846l-3.784-11.295c-6.777-22.646-19.597-42.977-39.193-56.531-18.863-14.344-42.243-20.387-65.624-20.387-29.423 0-57.321 14.344-77.652 33.941-20.387 20.387-32.416 47.495-32.416 76.184s11.295 57.321 31.682 78.443c15.813 15.813 36.087 26.543 57.999 30.27l3.106.621V183.854l34.675.113v249.221l2.994-.395c39.983-4.518 76.918-21.856 105.55-50.545 21.122-21.855 36.934-48.285 45.236-77.652l.847-2.993h-38.12l-.452 1.525c-9.036 25.639-24.905 47.495-45.97 64.098-9.036 7.568-19.597 13.554-30.157 18.072l-3.784 1.525v-34.675l1.525-.735c4.518-2.259 9.036-5.252 12.819-8.301 19.597-15.813 33.151-36.935 39.194-61.106l2.993-12.085h98.774v1.581c0 .96 0 1.864-.113 2.824-4.067 49.246-25.866 94.707-60.993 129.778-39.193 39.193-91.996 61.839-147.793 61.839h-17.338l.057.057Zm-39.928-8.302c-34.675-9.826-65.623-27.898-91.262-53.538-39.194-39.193-61.105-92.73-61.105-147.793 0-55.062 21.855-109.334 61.105-148.528 25.639-25.639 56.531-43.71 91.262-53.537l2.993-.734v32.755l-1.524.395c-26.374 8.302-50.545 23.38-70.142 42.977-33.94 33.941-52.803 79.177-52.803 126.672 0 47.495 18.862 91.997 52.803 125.938 19.597 19.596 43.712 34.675 70.142 42.977l1.524.395v32.755l-2.993-.734Zm74.659-342.347c1.525 0 2.994.112 4.518.282 22.534 3.219 43.655 11.464 62.63 24.566 20.388 15.079 36.201 36.2 45.971 60.315l.564 1.525h38.629l-.339-1.582a29.13 29.13 0 0 0-1.186-4.348c-9.092-24.792-23.154-47.439-42.243-66.47-28.632-28.633-65.623-45.97-105.55-50.545l-2.994-.282v36.539Z"
    clip-rule="evenodd"
  />
</svg>
